<?xml version="1.0" encoding="utf-8"?>
<!-- Generator: Adobe Illustrator 22.1.0, SVG Export Plug-In . SVG Version: 6.00 Build 0)  -->
<svg version="1.1" id="Layer_1" xmlns="http://www.w3.org/2000/svg" xmlns:xlink="http://www.w3.org/1999/xlink" x="0px" y="0px"
	 viewBox="0 0 400 400" style="enable-background:new 0 0 400 400;" xml:space="preserve">
<style type="text/css">
	.st0{fill:#88C540;}
	.st1{fill:#579A37;}
	.st2{fill:#A6CE39;}
	.st3{fill:#599454;}
	.st4{fill:#167651;}
	.st5{fill:#377C42;}
	.st6{fill:#3B7426;}
</style>
<g>
	<g>
		<path class="st0" d="M124.694,288.857c41.428,19.584,53.358,67.521,61.508,108.516c0.125,0.628,4.606-1.113,4.33-2.5
			c-8.195-41.22-20.258-89.105-61.862-108.772C127.515,285.555,123.874,288.469,124.694,288.857L124.694,288.857z"/>
	</g>
</g>
<g>
	<g>
		<path class="st1" d="M255.653,306.65c-34.572,20.726-59.554,55.405-67.247,95.084c-0.141,0.728,4.115-0.725,4.375-2.065
			c7.32-37.761,30.539-71.886,63.622-91.72C258.873,306.469,258.182,305.134,255.653,306.65L255.653,306.65z"/>
	</g>
</g>
<g>
	<g>
		<path class="st2" d="M91.042,182.819c7.422,2.649,12.111,9.202,16.919,15.085c5.19,6.35,10.289,12.776,15.252,19.306
			c9.762,12.845,19.014,26.1,27.306,39.946c16.32,27.252,28.843,56.966,33.352,88.569c3.054,21.4,4.143,43.165,5.971,64.698
			c0.091,1.076,4.475-0.89,4.375-2.065c-2.986-35.183-3.901-70.978-15.804-104.574c-11.012-31.081-28.637-59.389-48.309-85.678
			c-5.425-7.25-11.028-14.367-16.744-21.39c-5.203-6.392-10.276-13.773-18.342-16.651C93.763,179.615,90.308,182.557,91.042,182.819
			L91.042,182.819z"/>
	</g>
</g>
<g>
	<g>
		<path class="st3" d="M312.389,196.484c-51.291,40.411-100.404,89.342-118.195,154.137c-5.049,18.391-7.182,37.452-5.893,56.491
			c0.072,1.059,4.456-0.874,4.375-2.065c-4.554-67.235,33.345-127.273,80.084-172.196c13.467-12.943,27.796-24.952,42.461-36.507
			C317.706,194.387,313.361,195.718,312.389,196.484L312.389,196.484z"/>
	</g>
</g>
<g>
	<g>
		<path class="st4" d="M111.723,54.535c14.291,18.6,28.7,37.359,39.251,58.411c10.51,20.971,17.158,43.819,22.956,66.471
			c12.015,46.937,18.181,95.353,18.378,143.802c0.109,26.929-1.663,53.835-5.208,80.528c-0.108,0.813,4.199-0.743,4.375-2.065
			c6.279-47.267,6.867-95.195,1.693-142.599c-2.649-24.272-6.799-48.38-12.434-72.137c-5.412-22.811-11.71-45.811-21.132-67.329
			c-10.836-24.748-27.188-46.288-43.548-67.582C115.309,51.067,111.155,53.796,111.723,54.535L111.723,54.535z"/>
	</g>
</g>
<g>
	<g>
		<path class="st5" d="M272.388,40.318c-28.2,39.965-43.953,86.056-56.997,132.801c-13.372,47.92-22.611,96.991-27.592,146.491
			c-2.792,27.75-4.215,55.621-4.34,83.51c-0.004,0.978,4.369-0.815,4.375-2.065c0.44-98.044,17.037-196.916,50.769-289.089
			c9.508-25.981,21.94-50.529,37.902-73.15C277.24,37.774,273.065,39.359,272.388,40.318L272.388,40.318z"/>
	</g>
</g>
<g>
	<g>
		<path class="st6" d="M203.915,156.078c18.573,61.638,12.014,126.954-2.192,188.752c-4.093,17.807-8.811,35.462-13.724,53.058
			c-0.17,0.607,3.998-0.717,4.375-2.065c17.31-61.995,32.283-126.197,25.913-190.993c-1.708-17.372-5.005-34.537-10.042-51.253
			C208.021,152.833,203.53,154.801,203.915,156.078L203.915,156.078z"/>
	</g>
</g>
<g>
</g>
<g>
</g>
<g>
</g>
<g>
</g>
<g>
</g>
<g>
</g>
</svg>
